<?xml version="1.0" encoding="UTF-8" standalone="no"?>
<!DOCTYPE svg PUBLIC "-//W3C//DTD SVG 1.1//EN" "http://www.w3.org/Graphics/SVG/1.1/DTD/svg11.dtd">
<svg xmlns="http://www.w3.org/2000/svg" version="1.1" viewBox="0.00 0.00 64.00 64.00">
<path fill="#0367a6" fill-opacity="0.996" d="
  M 32.65 6.21
  C 39.95 1.26 55.45 1.70 55.05 13.23
  Q 54.78 21.01 53.72 23.20
  C 52.35 26.03 48.29 31.97 49.39 35.01
  Q 53.88 47.36 48.24 58.23
  Q 46.92 60.77 43.96 59.33
  A 0.95 0.94 6.9 0 1 43.45 58.69
  C 42.39 53.86 36.81 38.82 31.53 40.02
  C 26.35 41.21 21.96 54.11 20.71 58.61
  Q 20.59 59.07 20.19 59.33
  C 14.66 63.05 12.88 47.09 13.01 44.46
  C 13.17 41.05 14.49 36.56 15.13 32.56
  Q 15.21 32.05 14.97 31.59
  Q 13.42 28.71 11.97 25.83
  C 9.18 20.29 6.79 8.62 14.01 5.05
  Q 23.36 0.42 31.76 6.21
  Q 32.21 6.51 32.65 6.21
  Z
  M 22.65 13.59
  A 0.68 0.68 0.0 0 1 23.14 12.79
  Q 27.39 11.67 30.19 8.27
  Q 30.55 7.83 30.08 7.53
  Q 22.35 2.57 14.63 6.80
  C 9.28 9.73 11.22 19.00 12.94 23.64
  C 15.32 30.07 17.70 29.90 15.93 38.16
  C 14.72 43.82 14.29 53.05 18.47 57.58
  Q 19.14 58.31 19.37 57.34
  C 20.50 52.51 24.97 39.62 30.52 38.47
  C 38.73 36.76 43.84 51.84 45.16 57.75
  A 0.43 0.43 0.0 0 0 45.94 57.89
  C 49.60 52.13 50.02 43.76 48.33 37.69
  C 46.97 32.79 47.27 31.01 49.77 26.75
  C 52.55 22.02 56.08 9.69 49.18 6.50
  Q 41.87 3.11 35.01 6.92
  C 32.83 8.13 26.47 15.32 23.51 14.42
  Q 22.78 14.20 22.65 13.59
  Z"
/>
<path fill="#0367a6" fill-opacity="0.996" d="
  M 36.94 15.69
  C 31.57 11.99 38.54 6.76 41.15 11.76
  A 0.52 0.51 58.1 0 0 41.91 11.94
  Q 42.46 11.54 42.76 10.97
  A 0.63 0.57 -8.6 0 1 42.89 10.81
  C 45.76 8.31 49.86 10.93 47.77 14.31
  Q 47.51 14.73 47.07 14.96
  Q 46.29 15.35 46.02 16.22
  A 0.70 0.69 -65.8 0 0 46.32 17.03
  C 50.84 19.78 46.45 26.04 42.23 20.82
  A 0.75 0.75 0.0 0 0 40.96 21.00
  C 39.21 25.07 31.60 22.22 37.02 16.55
  A 0.57 0.57 0.0 0 0 36.94 15.69
  Z
  M 39.6987 14.4717
  A 1.74 1.26 46.0 0 0 39.3964 12.3447
  A 1.74 1.26 46.0 0 0 37.2813 11.9683
  A 1.74 1.26 46.0 0 0 37.5836 14.0953
  A 1.74 1.26 46.0 0 0 39.6987 14.4717
  Z
  M 45.9916 11.9817
  A 1.10 1.10 0.0 0 0 44.4360 11.9736
  L 37.2143 19.1200
  A 1.10 1.10 0.0 0 0 37.2062 20.6757
  L 37.2484 20.7183
  A 1.10 1.10 0.0 0 0 38.8040 20.7264
  L 46.0257 13.5800
  A 1.10 1.10 0.0 0 0 46.0338 12.0243
  L 45.9916 11.9817
  Z
  M 46.2800 20.4665
  A 1.76 1.22 37.3 0 0 45.6193 18.4295
  A 1.76 1.22 37.3 0 0 43.4800 18.3335
  A 1.76 1.22 37.3 0 0 44.1407 20.3705
  A 1.76 1.22 37.3 0 0 46.2800 20.4665
  Z"
/>
</svg>
